Coordinates
version=1
nRows=29
nColumns=24
inDegrees=yes

Units are S.I. units (second, meters, Newtons, ...)
Angles are in degrees.

endheader
time	pelvis_tilt	pelvis_list	pelvis_rotation	pelvis_tx	pelvis_ty	pelvis_tz	hip_flexion_r	hip_adduction_r	hip_rotation_r	knee_angle_r	ankle_angle_r	subtalar_angle_r	mtp_angle_r	hip_flexion_l	hip_adduction_l	hip_rotation_l	knee_angle_l	ankle_angle_l	subtalar_angle_l	mtp_angle_l	lumbar_extension	lumbar_bending	lumbar_rotation
      2.94500000	     -8.00922444	      9.84636662	     -9.98806027	     -2.57617314	     -0.02277166	      0.40148831	     19.39581149	    -10.27168613	      4.14158553	    -64.64849131	    -26.87255244	    -27.03093565	      2.08253331	     20.56431627	     10.50987694	      2.82490900	    -18.86555171	     -0.97819470	      0.76608142	      7.64546116	      9.07143867	     -7.85618088	      8.09320315
      2.95000000	     -8.03300965	      9.47535674	     -9.92333284	     -2.57035247	     -0.02170266	      0.40079722	     20.11855464	     -9.67186092	      4.13456705	    -64.94070352	    -26.34042531	    -26.84692021	      2.70432922	     19.91873066	     10.26297491	      2.99298474	    -18.52792349	     -0.67062459	      0.95373048	      7.74834770	      8.96382365	     -7.43817631	      7.77392311
      2.95500000	     -8.07480599	      9.07473661	     -9.86705639	     -2.56454816	     -0.02062784	      0.40012400	     20.83490139	     -9.03587587	      4.13329762	    -65.11140243	    -25.75310729	    -26.46851361	      3.64699800	     19.27910336	      9.97535637	      3.18149734	    -18.17721514	     -0.36171849	      1.14329240	      7.81551189	      8.87386502	     -6.98805247	      7.47700600
      2.96000000	     -8.12393137	      8.67759589	     -9.85143824	     -2.55879085	     -0.01956623	      0.39948278	     21.55682964	     -8.38765250	      4.18718228	    -65.16565617	    -25.22967483	    -26.05326760	      4.99599356	     18.63973912	      9.67993678	      3.39265327	    -17.80865022	     -0.06404592	      1.27704657	      7.76244714	      8.79500490	     -6.52737237	      7.26733627
      2.96500000	     -8.21686474	      8.19735871	     -9.72108918	     -2.55302727	     -0.01852701	      0.39877767	     22.25571210	     -7.69233247	      4.05290320	    -65.13589135	    -24.55536048	    -25.44549904	      5.92491606	     18.04628484	      9.31378790	      3.68077801	    -17.47280332	      0.23548104	      1.45979598	      7.82672324	      8.73900242	     -6.00128516	      6.88794771
      2.97000000	     -8.31103144	      7.71884107	     -9.62479862	     -2.54727486	     -0.01752189	      0.39810717	     22.95023603	     -6.99459444	      3.94432742	    -65.01787733	    -23.83449042	    -24.73550377	      6.96109105	     17.45485382	      8.94089586	      3.97131376	    -17.13270465	      0.49982993	      1.55705018	      7.79843458	      8.69462004	     -5.47090677	      6.56150086
      2.97500000	     -8.41503847	      7.24038190	     -9.51071246	     -2.54153791	     -0.01658171	      0.39743812	     23.63896467	     -6.31165034	      3.79870022	    -64.82434132	    -23.08514499	    -23.98897155	      7.96239061	     16.88287079	      8.56923153	      4.30610296	    -16.80895786	      0.75683470	      1.61814308	      7.72967599	      8.66270010	     -4.94483028	      6.22516009
      2.98000000	     -8.51948829	      6.77783373	     -9.38931337	     -2.53581856	     -0.01572856	      0.39678101	     24.32331987	     -5.65822431	      3.63128235	    -64.57378162	    -22.30627293	    -23.23372156	      8.89109628	     16.32076322	      8.21441277	      4.68567773	    -16.49705289	      1.01391101	      1.64187449	      7.62087934	      8.63486747	     -4.44095369	      5.89432421
      2.98500000	     -8.63716070	      6.31079935	     -9.22428848	     -2.53006234	     -0.01493333	      0.39610507	     24.99426216	     -5.03799995	      3.37136623	    -64.24761765	    -21.53075519	    -22.51768892	      9.64026490	     15.78542867	      7.85766047	      5.04009221	    -16.20292916	      1.24015380	      1.64754449	      7.51861394	      8.63035378	     -3.94135467	      5.51861102
      2.99000000	     -8.74244995	      5.89243469	     -9.04877259	     -2.52431809	     -0.01422593	      0.39543857	     25.66214952	     -4.47826644	      3.13073354	    -63.88741651	    -20.77297231	    -21.79301189	     10.31144745	     15.23457782	      7.55085539	      5.44728325	    -15.88433633	      1.46327290	      1.65017561	      7.39063271	      8.62247282	     -3.49648845	      5.11866549
      2.99500000	     -8.83945717	      5.50810022	     -8.84897287	     -2.51856779	     -0.01360974	      0.39478423	     26.31428445	     -3.98694620	      2.83845954	    -63.47361584	    -20.00667588	    -21.15175728	     10.86834835	     14.68663120	      7.27891373	      5.85096156	    -15.57179183	      1.67999451	      1.64784387	      7.26017122	      8.61638895	     -3.10014062	      4.71354571
      3.00000000	     -8.93420976	      5.15094575	     -8.62440226	     -2.51280848	     -0.01307695	      0.39414014	     26.95514855	     -3.55488612	      2.49625019	    -63.00478044	    -19.27297872	    -20.61864218	     11.30005346	     14.14613156	      7.03123874	      6.21437999	    -15.25746251	      1.88825459	      1.65539316	      7.15180797	      8.61794007	     -2.74351843	      4.29380956
      3.00500000	     -9.00838267	      4.85668531	     -8.37896663	     -2.50705274	     -0.01261983	      0.39350871	     27.58324969	     -3.20809064	      2.16743333	    -62.50550769	    -18.57525140	    -20.11627344	     11.65458631	     13.57283170	      6.84517420	      6.61770457	    -14.89942092	      2.09693415	      1.71058170	      7.03864406	      8.60943495	     -2.46192249	      3.84244689
      3.01000000	     -9.07571805	      4.59370840	     -8.11191565	     -2.50129121	     -0.01223835	      0.39289059	     28.19472407	     -2.92499823	      1.79836954	    -61.95237491	    -17.90972371	    -19.71857781	     11.91234864	     12.99891512	      6.68531364	      6.97352063	    -14.53340555	      2.30268029	      1.79406100	      6.94446074	      8.60166092	     -2.22372176	      3.38565265
      3.01500000	     -9.14424572	      4.35462889	     -7.83476719	     -2.49552190	     -0.01192918	      0.39228826	     28.79668672	     -2.68751571	      1.40896913	    -61.34153105	    -17.29295707	    -19.42213191	     12.09047306	     12.42789728	      6.54058954	      7.27757260	    -14.15320217	      2.50633456	      1.90701996	      6.87561846	      8.60190895	     -2.01356059	      2.93916847
      3.02000000	     -9.17840906	      4.17139308	     -7.52268743	     -2.48977124	     -0.01167165	      0.39169857	     29.36357705	     -2.53880132	      1.01724762	    -60.69967567	    -16.70325515	    -19.13696718	     12.20635100	     11.81483664	      6.45278447	      7.62032819	    -13.74378951	      2.72433488	      2.08386207	      6.80001329	      8.57154521	     -1.88451931	      2.42346172
      3.02500000	     -9.23030407	      3.98333074	     -7.21292725	     -2.48399085	     -0.01147408	      0.39111233	     29.92415939	     -2.40146940	      0.60219163	    -59.98219123	    -16.16947522	    -18.93640365	     12.25859607	     11.22083299	      6.34821404	      7.89963893	    -13.32827212	      2.93616058	      2.26984194	      6.74627738	      8.56477500	     -1.74381991	      1.95891295
      3.03000000	     -9.28281387	      3.82859864	     -6.91226703	     -2.47824038	     -0.01135859	      0.39060237	     30.48455361	     -2.28898669	      0.23769942	    -59.22602233	    -15.69821483	    -18.77713548	     12.27528280	     10.62048578	      6.26120953	      8.20725175	    -12.88779301	      3.16802680	      2.49210619	      6.72114256	      8.56018501	     -1.64400316	      1.47990299
      3.03500000	     -9.30931217	      3.68006059	     -6.55068871	     -2.47247149	     -0.01124588	      0.39002274	     30.98250749	     -2.24597182	     -0.20838504	    -58.39707106	    -15.22199408	    -18.60512082	     12.24919907	     10.00837139	      6.19240149	      8.47695269	    -12.46696305	      3.37479939	      2.72788175	      6.67823781	      8.52640556	     -1.56765460	      0.93473958
      3.04000000	     -9.31449781	      3.53147680	     -6.18325556	     -2.46670572	     -0.01114352	      0.38944503	     31.43360534	     -2.22940898	     -0.68231090	    -57.50317423	    -14.75889461	    -18.41133982	     12.14782626	      9.37496086	      6.12011744	      8.74450912	    -12.04634484	      3.57046574	      2.95981906	      6.60716231	      8.46807631	     -1.49723558	      0.42377340
      3.04500000	     -9.35470634	      3.38858641	     -5.86635828	     -2.46096592	     -0.01114170	      0.38897622	     31.90897757	     -2.17533549	     -1.06279705	    -56.54809324	    -14.35301309	    -18.23001283	     12.05077653	      8.77618782	      6.02960021	      9.01208728	    -11.61619770	      3.77854017	      3.17078850	      6.57288730	      8.44912384	     -1.42478052	     -0.08929374
      3.05000000	     -9.37281742	      3.24856917	     -5.49202281	     -2.45524035	     -0.01114037	      0.38842035	     32.32663249	     -2.18574740	     -1.52434944	    -55.52083411	    -13.94152145	    -18.00574835	     11.93528015	      8.17214785	      5.95236625	      9.27815658	    -11.20985244	      3.96317974	      3.38742512	      6.53772956	      8.39848523	     -1.36277822	     -0.61986982
      3.05500000	     -9.32264550	      3.12842670	     -5.11338557	     -2.44955648	     -0.01111207	      0.38788654	     32.64838844	     -2.23631965	     -1.99012464	    -54.43854405	    -13.48634005	    -17.70476502	     11.69871084	      7.50044282	      5.89726614	      9.57108858	    -10.80961267	      4.12883317	      3.58498839	      6.45199914	      8.26565618	     -1.33406560	     -1.15039257
      3.06000000	     -9.36495294	      2.98213003	     -4.76004139	     -2.44386646	     -0.01120736	      0.38741657	     33.03255173	     -2.23617860	     -2.42321023	    -53.25886986	    -13.09631160	    -17.40270047	     11.59297916	      6.93616938	      5.79149976	      9.82767723	    -10.42151986	      4.29887982	      3.76790881	      6.44090629	      8.23602564	     -1.26841121	     -1.64716966
      3.06500000	     -9.40902895	      2.83294299	     -4.40519575	     -2.43819875	     -0.01132790	      0.38697362	     33.38180699	     -2.24019320	     -2.85672129	    -51.99142913	    -12.71556922	    -17.06315383	     11.53248906	      6.38739872	      5.67578244	     10.08595183	    -10.05491893	      4.45418991	      3.94822781	      6.44535651	      8.20286293	     -1.20356843	     -2.11452476
      3.07000000	     -9.44243120	      2.68549065	     -4.05692258	     -2.43253397	     -0.01149310	      0.38653606	     33.69078099	     -2.25612877	     -3.29380347	    -50.65480560	    -12.33005620	    -16.66157986	     11.50254496	      5.83175058	      5.55851598	     10.33367598	     -9.69271663	      4.62220922	      4.11023815	      6.45846393	      8.15772768	     -1.13830292	     -2.60852996
      3.07500000	     -9.45513480	      2.54467750	     -3.69191104	     -2.42692010	     -0.01164573	      0.38611529	     33.93395308	     -2.28593029	     -3.71847554	    -49.22466915	    -11.91828209	    -16.19220810	     11.49496574	      5.28247442	      5.44816437	     10.56560597	     -9.37376758	      4.75133993	      4.26736223	      6.46994617	      8.08071458	     -1.08504115	     -3.12201448
      3.08000000	     -9.51571706	      2.39294509	     -3.35728444	     -2.42128577	     -0.01189614	      0.38580177	     34.19287643	     -2.28355325	     -4.12311956	    -47.70974927	    -11.52234201	    -15.68005783	     11.55115032	      4.78681061	      5.30782539	     10.79281857	     -9.06340907	      4.90565140	      4.41912889	      6.50507643	      8.05747390	     -1.02614258	     -3.53824623
      3.08500000	     -9.53495426	      2.25448070	     -2.99501761	     -2.41568329	     -0.01212700	      0.38542108	     34.36553495	     -2.32162356	     -4.53583571	    -46.11209241	    -11.07862390	    -15.06544243	     11.64473350	      4.27434296	      5.19204503	     10.99583662	     -8.79362501	      5.03321370	      4.56184630	      6.53875387	      7.98403944	     -0.97533296	     -4.04024225
